<?xml version="1.0" standalone="no"?>
<!DOCTYPE svg PUBLIC "-//W3C//DTD SVG 20010904//EN"
 "http://www.w3.org/TR/2001/REC-SVG-20010904/DTD/svg10.dtd">
<svg version="1.0" xmlns="http://www.w3.org/2000/svg"
 width="181.000000pt" height="120.000000pt" viewBox="0 0 181.000000 120.000000"
 preserveAspectRatio="xMidYMid meet">
<metadata>
Created by potrace 1.10, written by Peter Selinger 2001-2011
</metadata>
<g transform="translate(0.000000,120.000000) scale(0.050000,-0.050000)"
fill="#5fdf5f" stroke="none">
<path d="M9 1200 c0 -666 3 -938 6 -605 3 333 3 877 0 1210 -3 333 -6 61 -6
-605z"/>
<path d="M1280 2129 c-650 -182 -723 -1025 -113 -1310 232 -109 500 -94 719
42 115 71 110 70 168 15 79 -74 136 0 62 79 l-52 55 49 70 c362 520 -198 1227
-833 1049z m492 -121 c560 -265 448 -1041 -168 -1169 -386 -80 -770 228 -770
617 0 461 504 757 938 552z"/>
<path d="M1360 1961 c-313 -95 -494 -514 -320 -741 l38 -50 -27 81 c-116 338
93 652 469 708 l110 16 -110 1 c-60 0 -133 -6 -160 -15z"/>
<path d="M1741 1868 c-38 -16 -76 -40 -84 -52 -7 -13 -27 -25 -42 -27 -96 -14
-275 -179 -275 -253 0 -21 -8 -33 -18 -27 -24 15 -95 -85 -114 -160 -8 -32
-27 -71 -42 -86 -15 -15 -24 -59 -21 -105 4 -69 8 -74 31 -44 14 20 36 37 50
38 13 1 40 3 59 5 19 2 52 20 74 42 21 21 64 52 95 69 47 26 50 31 16 32 -24
1 -9 13 38 30 43 15 97 46 120 69 l41 41 -80 1 -79 2 110 29 c116 31 290 173
272 221 -6 14 -2 27 8 31 10 3 23 36 30 73 l11 67 -85 -66 c-47 -36 -102 -82
-122 -102 -19 -20 -45 -36 -56 -36 -12 0 -35 -14 -52 -31 -51 -51 -55 -14 -4
40 27 28 64 50 83 51 19 0 35 9 35 20 0 11 12 20 27 20 36 0 93 65 93 107 0
40 -29 41 -119 1z m-181 -275 c0 -17 -144 -153 -163 -153 -34 0 -7 49 38 69
23 11 47 36 52 55 7 29 73 55 73 29z"/>
<path d="M1840 1207 c-16 -6 -52 -19 -80 -31 -27 -12 -72 -30 -100 -41 -27
-11 -75 -33 -105 -48 -30 -16 -101 -43 -157 -60 -76 -22 -97 -36 -80 -53 16
-16 28 -16 46 2 13 13 39 24 58 24 19 0 105 34 191 75 152 72 196 86 273 87
20 0 33 10 29 23 -9 27 -35 35 -75 22z"/>
<path d="M1106 1028 c-16 -43 29 -68 114 -64 l70 3 -73 7 c-61 7 -71 15 -63
47 13 47 -30 53 -48 7z"/>
<path d="M2143 854 c-68 -74 -56 -96 177 -321 252 -244 231 -235 321 -142 l69
72 -225 218 c-236 230 -271 248 -342 173z m296 -362 c72 -73 121 -132 110
-132 -11 0 -114 96 -229 213 -118 121 -166 178 -110 132 55 -45 158 -141 229
-213z"/>
</g>
</svg>
