 <svg  version="1.0" xmlns="http://www.w3.org/2000/svg"  width="180.000000pt" height="120.000000pt" viewBox="0 0 180.000000 120.000000"  preserveAspectRatio="xMidYMid meet">  <g transform="translate(0.000000,120.000000) scale(0.050000,-0.050000)" fill="#5fdf5f" stroke="none"> <path d="M2255 2034 c-182 -170 -208 -214 -128 -214 71 0 402 315 371 352 -38 46 -61 33 -243 -138z"/> <path d="M1297 1911 c-29 -16 -76 -69 -104 -117 -83 -142 -376 -365 -673 -514 -210 -104 -240 -130 -240 -206 0 -138 155 -254 338 -254 55 0 105 -9 112 -20 7 -11 38 -20 70 -20 45 0 79 -25 162 -120 120 -138 145 -144 322 -75 115 45 139 80 63 91 -86 13 -239 198 -199 241 49 55 300 89 667 91 l304 2 56 55 c275 276 -525 1046 -878 846z m308 -143 c263 -134 532 -523 431 -624 -129 -129 -656 342 -656 587 0 108 63 119 225 37z m-345 -218 c0 -16 9 -30 19 -30 11 0 30 -19 43 -43 19 -37 18 -41 -11 -30 -20 8 -28 5 -20 -8 7 -11 30 -15 53 -8 34 11 38 6 27 -29 -10 -30 -5 -42 16 -42 16 0 34 -14 41 -31 8 -21 3 -26 -13 -17 -18 10 -18 6 1 -14 14 -15 35 -29 45 -30 10 -2 29 -4 41 -5 12 -2 18 -15 12 -31 -6 -15 -2 -36 9 -47 21 -21 -93 -53 -278 -79 -47 -6 -85 -19 -85 -29 0 -9 -9 -17 -19 -17 -25 0 -121 -96 -121 -121 0 -28 -35 -23 -48 6 -6 14 -6 -2 0 -35 8 -41 5 -51 -8 -33 -10 14 -26 26 -36 26 -37 -2 -108 22 -108 36 0 8 -16 14 -35 13 -79 -2 -285 34 -285 51 0 9 47 17 103 17 122 0 118 23 -5 27 -89 3 -139 53 -55 53 26 0 61 9 77 20 21 14 10 17 -40 8 -63 -10 -60 -6 40 45 61 30 115 63 122 72 6 10 20 15 30 13 32 -8 95 27 188 102 50 40 115 83 146 96 34 15 51 33 42 47 -9 14 -5 18 8 9 13 -7 34 5 48 27 30 48 56 53 56 11z"/> <path d="M2550 1822 c-226 -89 -324 -162 -216 -162 84 0 545 190 546 225 0 53 -63 41 -330 -63z"/> <path d="M2591 1545 c-157 -7 -223 -30 -198 -70 16 -26 607 1 642 29 69 57 19 61 -444 41z"/> </g> </svg> 