<?xml version="1.0" standalone="no"?>
<!DOCTYPE svg PUBLIC "-//W3C//DTD SVG 20010904//EN"
 "http://www.w3.org/TR/2001/REC-SVG-20010904/DTD/svg10.dtd">
<svg version="1.0" xmlns="http://www.w3.org/2000/svg"
 width="175.000000pt" height="120.000000pt" viewBox="0 0 175.000000 120.000000"
 preserveAspectRatio="xMidYMid meet">
<metadata>
Created by potrace 1.10, written by Peter Selinger 2001-2011
</metadata>
<g transform="translate(0.000000,120.000000) scale(0.050000,-0.050000)"
fill="#5fdf5f" stroke="none">
<path d="M1175 2159 c-19 -12 -53 -55 -74 -96 -21 -42 -52 -87 -70 -102 -17
-14 -31 -52 -31 -84 0 -79 -51 -195 -114 -261 -31 -32 -46 -66 -39 -85 13 -35
-69 -237 -105 -260 -12 -7 -22 -34 -22 -60 0 -56 -46 -170 -109 -268 -126
-197 -64 -431 139 -525 122 -57 1425 -57 1530 -1 109 59 130 101 330 680 202
581 211 618 153 670 -63 57 -69 45 -271 -542 -109 -316 -211 -600 -226 -630
l-27 -55 -736 0 c-707 0 -738 2 -772 39 -86 95 -63 99 668 105 811 7 716 -37
872 406 326 922 340 976 267 1042 -49 45 -1292 69 -1363 27z m1192 -169 c-1
-11 4 -38 12 -60 9 -23 0 -81 -20 -140 -34 -95 -36 -98 -49 -45 -8 30 -22 50
-32 44 -10 -6 -19 18 -19 55 -1 51 -5 57 -17 27 -14 -35 -16 -36 -29 -3 -7 20
-8 44 -2 54 6 10 -3 24 -20 30 -25 10 -27 19 -8 41 27 33 189 30 184 -3z
m-489 -23 c368 -119 359 -500 -15 -609 -57 -17 -95 -42 -108 -72 -33 -72 -335
-71 -335 1 0 93 83 179 229 238 198 80 228 115 160 184 -50 49 -153 38 -241
-26 l-78 -57 -115 39 c-134 45 -133 43 -57 156 111 165 326 221 560 146z
m-702 -328 c18 -30 38 -38 70 -29 31 9 36 7 16 -6 -35 -25 -11 -64 39 -64 22
0 39 -9 39 -20 0 -18 -28 -28 -65 -22 -8 1 -15 -8 -15 -20 0 -13 18 -18 40
-12 22 6 40 2 40 -8 0 -10 -8 -18 -17 -18 -10 0 -28 -54 -41 -119 -13 -66 -37
-145 -53 -175 -43 -83 -57 -183 -32 -237 29 -63 13 -71 -180 -84 -125 -9 -165
-5 -179 17 -12 19 -17 20 -18 4 0 -14 -13 -20 -30 -13 -16 6 -30 21 -30 33 0
32 128 343 144 350 8 4 9 20 3 35 -6 16 -2 29 8 29 11 0 26 29 33 64 7 35 27
80 45 100 19 20 28 42 21 49 -17 17 25 91 70 123 20 15 31 35 25 45 -6 11 1
19 15 19 15 0 38 -18 52 -41z m997 -374 c-7 -42 -35 -134 -64 -205 -96 -242
-95 -240 -125 -215 -20 17 -31 16 -43 -4 -16 -26 -187 -22 -214 5 -6 6 11 55
38 108 53 102 84 174 103 231 6 19 23 35 39 35 29 0 126 41 213 91 68 38 67
39 53 -46z m-473 -99 c0 -26 -66 -195 -87 -222 -13 -18 -63 -24 -161 -20 -160
7 -159 6 -98 171 l31 85 158 0 c86 0 157 -6 157 -14z"/>
<path d="M877 5 c487 -3 1279 -3 1760 0 480 3 81 5 -887 5 -968 0 -1361 -2
-873 -5z"/>
</g>
</svg>
