 <svg  version="1.0" xmlns="http://www.w3.org/2000/svg"  width="176.000000pt" height="132.000000pt" viewBox="0 0 176.000000 132.000000"  preserveAspectRatio="xMidYMid meet">  <g transform="translate(0.000000,132.000000) scale(0.050000,-0.050000)" fill="#5fdf5f" stroke="none"> <path d="M1770 2007 c-914 -106 -1314 -875 -781 -1502 439 -516 1532 -425 1890 157 394 640 -268 1442 -1109 1345z m380 -151 c613 -129 906 -760 557 -1204 -355 -453 -1170 -498 -1588 -88 -623 614 79 1492 1031 1292z"/> <path d="M1660 1664 c0 -111 -124 -164 -382 -164 -120 0 -218 -4 -218 -10 0 -5 86 -130 190 -277 125 -177 190 -287 190 -322 0 -85 55 -168 140 -211 66 -34 80 -51 80 -100 0 -47 9 -60 40 -60 24 0 62 -31 95 -79 67 -97 71 -97 128 -16 59 85 74 94 152 95 59 0 65 6 65 60 0 58 3 60 91 60 l91 0 -4 172 -4 173 173 246 c209 297 208 269 3 269 -168 0 -170 1 -170 50 0 46 -7 50 -90 50 -87 0 -90 2 -90 60 l0 60 -240 0 -240 0 0 -56z m160 -74 c0 -67 3 -70 70 -70 67 0 70 3 70 70 0 98 74 103 84 5 6 -62 10 -65 101 -71 l95 -6 0 -89 0 -89 -260 0 -260 0 0 -230 0 -230 260 0 260 0 0 -80 0 -80 -100 0 -100 0 0 -70 c0 -57 -8 -70 -40 -70 -32 0 -40 13 -40 70 0 67 -3 70 -70 70 -67 0 -70 -3 -70 -70 0 -57 -8 -70 -40 -70 -32 0 -40 13 -40 70 0 61 -6 70 -49 70 -127 0 -160 71 -168 360 -8 336 32 440 171 440 39 0 46 10 46 70 0 57 8 70 40 70 32 0 40 -13 40 -70z m420 -412 c0 -15 12 -13 33 5 31 25 31 23 6 -17 -15 -24 -32 -40 -39 -36 -6 4 -88 9 -181 11 -219 5 -250 26 -59 40 83 7 170 13 195 15 25 2 45 -6 45 -18z m-71 -69 c123 -23 55 -49 -130 -49 -159 0 -202 11 -169 43 16 16 223 20 299 6z m-64 -83 c-36 -5 -94 -5 -130 0 -36 4 -6 8 65 8 72 0 101 -4 65 -8z"/> </g> </svg> 