 <svg  version="1.0" xmlns="http://www.w3.org/2000/svg"  width="164.000000pt" height="120.000000pt" viewBox="0 0 164.000000 120.000000"  preserveAspectRatio="xMidYMid meet">  <g transform="translate(0.000000,120.000000) scale(0.050000,-0.050000)" fill="#5fdf5f" stroke="none"> <path d="M1160 2129 c-650 -182 -723 -1025 -113 -1310 232 -109 500 -94 719 42 115 71 110 70 168 15 79 -74 136 0 62 79 l-52 55 49 70 c362 520 -198 1227 -833 1049z m492 -121 c560 -265 448 -1041 -168 -1169 -386 -80 -770 228 -770 617 0 461 504 757 938 552z"/> <path d="M1240 1961 c-130 -39 -240 -130 -331 -271 -74 -114 -30 -578 47 -501 5 5 -2 24 -16 41 -45 54 -51 299 -9 396 74 172 234 288 449 327 l130 23 -110 0 c-60 0 -133 -6 -160 -15z"/> <path d="M1621 1868 c-38 -16 -76 -40 -84 -52 -7 -13 -27 -25 -42 -27 -96 -14 -275 -179 -275 -253 0 -21 -8 -33 -18 -27 -24 15 -95 -85 -114 -160 -8 -32 -27 -71 -42 -86 -15 -15 -24 -59 -21 -105 4 -69 8 -74 31 -44 14 20 36 37 50 38 13 1 40 3 59 5 19 2 52 20 74 42 21 21 64 52 95 69 47 26 50 31 16 32 -24 1 -9 13 38 30 43 15 97 46 120 69 l41 41 -76 0 c-46 0 -70 8 -63 20 7 12 21 15 32 9 61 -38 354 161 330 224 -6 14 -2 27 8 31 10 3 23 36 29 72 l12 67 -95 -73 c-53 -40 -103 -86 -112 -102 -9 -15 -30 -28 -48 -28 -17 0 -43 -16 -57 -35 -14 -19 -32 -28 -40 -20 -21 20 85 121 110 106 12 -8 27 1 33 18 7 17 23 31 37 31 34 0 91 66 91 107 0 40 -29 41 -119 1z m-181 -279 c0 -25 -146 -148 -163 -137 -24 14 19 68 53 68 14 0 30 18 36 40 9 35 74 60 74 29z"/> <path d="M1695 1198 c-20 -11 -32 -27 -26 -36 15 -24 134 0 125 25 -10 31 -57 37 -99 11z"/> <path d="M1480 1108 c-71 -36 -145 -66 -163 -67 -56 -2 -143 -55 -110 -67 16 -6 35 -6 42 1 7 7 34 16 61 20 26 3 99 33 161 66 62 32 126 59 141 59 30 0 39 32 13 46 -8 5 -73 -22 -145 -58z"/> <path d="M986 1028 c-16 -43 29 -68 114 -64 l70 3 -73 7 c-61 7 -71 15 -63 47 13 47 -30 53 -48 7z"/> <path d="M2023 854 c-68 -74 -56 -96 177 -321 252 -244 231 -235 321 -142 l69 72 -225 218 c-236 230 -271 248 -342 173z m296 -362 c72 -73 121 -132 110 -132 -11 0 -114 96 -229 213 -118 121 -166 178 -110 132 55 -45 158 -141 229 -213z"/> </g> </svg> 