 <svg  version="1.0" xmlns="http://www.w3.org/2000/svg"  width="177.000000pt" height="132.000000pt" viewBox="0 0 177.000000 132.000000"  preserveAspectRatio="xMidYMid meet">  <g transform="translate(0.000000,132.000000) scale(0.050000,-0.050000)" fill="#41e64c" stroke="none"> <path d="M1570 1896 c-56 -32 -930 -736 -930 -749 0 -29 86 -127 112 -127 15 0 221 154 456 342 236 189 434 343 442 343 8 0 206 -154 442 -343 461 -369 465 -371 527 -284 54 76 61 61 -99 192 l-140 115 0 236 c0 311 7 299 -170 299 -166 0 -170 -4 -170 -163 l0 -100 -121 97 c-216 172 -263 191 -349 142z m650 -266 c0 -43 -10 -70 -25 -70 -18 -1 -17 -5 3 -18 29 -19 14 -62 -23 -62 -12 0 -16 6 -8 14 7 7 -6 33 -29 58 -47 50 -9 129 45 96 16 -10 20 -4 11 19 -7 18 -4 33 7 33 10 0 19 -31 19 -70z"/> <path d="M1275 1315 l-355 -283 0 -287 c0 -387 -19 -365 311 -365 l269 0 0 230 0 230 150 0 150 0 0 -230 0 -230 269 0 c330 0 311 -22 311 365 l0 287 -359 284 c-197 156 -366 284 -375 283 -9 -1 -176 -128 -371 -284z m375 65 c7 -11 37 -14 66 -7 30 7 48 6 40 -2 -15 -17 84 -107 179 -162 36 -21 62 -49 57 -61 -6 -15 5 -20 29 -13 22 5 39 0 39 -13 0 -12 -10 -22 -21 -22 -12 0 -16 -9 -10 -19 7 -11 27 -14 45 -7 20 8 28 5 19 -9 -8 -13 1 -18 22 -12 81 20 140 -269 92 -448 -15 -56 -227 -70 -227 -15 0 17 -9 30 -20 30 -11 0 -20 41 -20 91 0 185 -90 268 -290 268 -161 0 -252 -57 -233 -145 2 -10 -6 -11 -19 -3 -37 23 -57 -34 -58 -166 0 -157 -39 -166 -44 -10 l-4 115 -7 -115 c-8 -123 -22 -134 -140 -102 -43 11 -45 21 -45 205 0 259 27 315 145 305 19 -1 35 6 35 17 0 11 -10 20 -21 20 -12 0 -16 9 -9 20 7 12 21 15 31 9 11 -6 19 0 19 15 0 25 52 64 184 139 32 18 58 38 57 45 -3 40 3 50 34 58 57 15 62 15 75 -6z"/> </g> </svg> 