 <svg  version="1.0" xmlns="http://www.w3.org/2000/svg"  width="179.000000pt" height="132.000000pt" viewBox="0 0 179.000000 132.000000"  preserveAspectRatio="xMidYMid meet">  <g transform="translate(0.000000,132.000000) scale(0.050000,-0.050000)" fill="#5fdf5f" stroke="none"> <path d="M1545 2027 c-106 -43 -104 -179 5 -504 50 -147 90 -269 90 -272 0 -2 -27 0 -59 5 -120 17 -237 -132 -182 -233 18 -34 14 -43 -24 -54 -277 -84 -85 -602 266 -716 444 -143 829 153 829 639 0 230 -20 286 -123 341 -37 20 -64 46 -60 57 140 366 176 576 112 657 -106 135 -223 38 -340 -280 -101 -276 -96 -275 -190 -22 -138 375 -190 436 -324 382z m110 -107 c19 -22 71 -146 117 -275 123 -350 121 -315 24 -315 l-83 1 -87 261 c-103 309 -89 466 29 328z m686 -41 c23 -44 -31 -270 -117 -489 -37 -95 -42 -100 -107 -93 -98 10 -100 15 -54 129 23 57 64 169 91 248 73 216 141 290 187 205z m-168 -680 c158 -29 200 -69 217 -204 82 -658 -703 -968 -1007 -398 -92 173 -64 320 56 289 45 -12 221 -233 221 -279 0 -86 -140 -43 -203 63 -50 86 -77 89 -77 11 0 -93 119 -201 220 -201 82 0 140 51 140 124 0 58 54 19 68 -49 14 -71 65 -135 107 -135 20 0 25 11 15 35 -44 108 -53 151 -42 195 20 78 122 180 242 242 173 90 152 140 -54 131 -176 -7 -258 26 -297 120 -45 108 44 120 394 56z m-512 -93 c182 -207 213 -500 38 -352 -155 130 -260 360 -184 404 57 33 77 26 146 -52z m312 -223 c-55 -54 -78 -47 -101 28 -11 36 -4 39 70 32 l82 -8 -51 -52z"/> </g> </svg> 