 <svg  version="1.0" xmlns="http://www.w3.org/2000/svg"  width="170.000000pt" height="120.000000pt" viewBox="0 0 170.000000 120.000000"  preserveAspectRatio="xMidYMid meet">  <g transform="translate(0.000000,120.000000) scale(0.050000,-0.050000)" fill="#5fdf5f" stroke="none"> <path d="M642 2250 c-270 -84 -301 -182 -301 -950 0 -1023 -50 -987 1349 -977 1280 10 1239 -25 1227 1038 -11 945 27 918 -1307 917 -686 0 -899 -7 -968 -28z m1867 -139 c54 -16 104 -25 113 -20 8 5 9 -10 3 -33 -9 -37 -5 -41 35 -28 37 12 44 8 34 -18 -7 -17 -6 -32 2 -32 73 0 92 -1195 21 -1367 -21 -51 -37 -69 -47 -53 -11 18 -27 11 -58 -23 -62 -69 -31 -67 -971 -72 -937 -5 -1002 2 -1028 101 -10 36 -15 37 -45 12 -32 -25 -34 -24 -23 17 8 31 2 45 -17 45 -23 0 -28 103 -28 639 0 656 10 747 78 736 21 -3 32 9 31 36 -1 30 13 42 49 45 28 2 59 13 69 23 34 34 1666 27 1782 -8z"/> <path d="M540 1320 c0 -367 5 -662 11 -655 15 14 14 1297 0 1311 -6 6 -11 -289 -11 -656z"/> <path d="M1330 1759 c-186 -95 -182 -919 4 -919 15 0 26 -9 26 -20 0 -35 51 -22 198 52 79 39 157 66 174 60 16 -6 25 -4 20 5 -6 10 32 40 84 69 107 59 217 159 234 216 7 21 21 38 31 38 42 0 15 79 -52 156 -79 90 -244 204 -296 204 -18 0 -33 9 -33 20 0 11 -9 20 -21 20 -54 0 -125 67 -86 82 26 10 17 14 -33 15 -38 0 -101 5 -140 11 -38 6 -88 2 -110 -9z m379 -272 c165 -96 271 -169 271 -188 0 -30 -544 -359 -594 -359 -39 0 -46 58 -46 360 0 431 -27 417 369 187z"/> </g> </svg> 