 <svg  version="1.0" xmlns="http://www.w3.org/2000/svg"  width="180.000000pt" height="132.000000pt" viewBox="0 0 180.000000 132.000000"  preserveAspectRatio="xMidYMid meet">  <g transform="translate(0.000000,132.000000) scale(0.050000,-0.050000)" fill="#5fdf5f" stroke="none"> <path d="M140 1873 c0 -16 26 -33 58 -40 119 -23 249 -182 429 -523 93 -176 220 -414 282 -530 61 -116 136 -257 165 -315 72 -144 101 -137 216 53 93 153 98 158 148 137 29 -12 141 -27 250 -33 l198 -12 62 -125 c91 -182 103 -175 293 190 176 338 268 511 446 848 123 232 202 317 295 317 38 0 58 10 58 30 0 25 -46 30 -290 30 -244 0 -290 -5 -290 -30 0 -18 19 -30 49 -30 27 0 74 -22 105 -49 l56 -49 -108 -206 c-124 -238 -162 -289 -162 -219 0 106 -160 307 -292 367 -80 37 47 155 167 156 27 0 45 12 45 30 0 25 -43 30 -270 30 -227 0 -270 -5 -270 -30 0 -20 20 -30 56 -30 59 0 143 -48 122 -69 -7 -7 -70 -4 -140 7 -71 10 -171 12 -223 4 -52 -9 -95 -10 -95 -3 0 28 51 61 94 61 28 0 46 12 46 30 0 25 -49 30 -320 30 -271 0 -320 -5 -320 -30 0 -21 21 -30 69 -30 152 0 280 -121 189 -178 -154 -98 -258 -269 -259 -426 0 -132 -15 -116 -162 174 -56 110 -120 230 -142 266 -48 81 -15 135 98 156 38 7 67 25 67 40 0 23 -66 28 -360 28 -292 0 -360 -5 -360 -27z m1790 -196 c638 -209 457 -986 -229 -983 -714 4 -860 810 -181 998 136 37 265 33 410 -15z m-654 -975 c-11 -54 -52 -44 -84 20 -42 85 -42 86 29 44 33 -19 58 -48 55 -64z"/> <path d="M1573 1607 c-7 -8 -13 -28 -13 -46 0 -58 -106 -101 -248 -101 l-131 0 119 -167 c66 -92 120 -186 120 -208 0 -50 73 -145 111 -145 18 0 29 -20 29 -50 0 -30 11 -50 29 -50 15 0 47 -24 70 -53 41 -52 97 -30 100 38 1 8 24 15 51 15 37 0 50 11 50 40 0 31 13 40 60 40 59 0 60 1 60 110 0 100 9 122 110 265 l110 155 -101 6 c-65 4 -105 16 -112 35 -6 16 -33 29 -60 29 -33 0 -54 16 -67 50 -19 50 -245 78 -287 37z m87 -87 c0 -29 13 -40 50 -40 37 0 50 11 50 40 0 22 9 40 20 40 11 0 20 -18 20 -40 0 -33 13 -40 71 -40 66 0 71 -4 65 -55 -6 -54 -8 -55 -171 -61 l-165 -6 0 -138 0 -138 165 -6 c152 -6 165 -9 171 -50 5 -36 -5 -44 -60 -50 -51 -5 -67 -16 -72 -51 -4 -25 -15 -45 -24 -45 -9 0 -20 20 -24 45 -4 30 -20 45 -46 45 -26 0 -42 -15 -46 -45 -8 -56 -44 -60 -44 -5 0 26 -20 49 -55 62 -140 53 -118 498 25 498 17 0 30 18 30 40 0 22 9 40 20 40 11 0 20 -18 20 -40z"/> </g> </svg> 